<svg width="71" height="51" viewBox="0 0 71 51" fill="none" xmlns="http://www.w3.org/2000/svg">
<path d="M52.063 8.55843C38.9458 8.55843 38.9458 21.3653 38.9458 21.4268C38.9458 21.4268 38.0671 34.2337 52.063 34.2337C52.063 34.2337 62.6069 34.8494 63.6739 26.6604C63.7367 25.9216 63.1718 25.3058 62.4814 25.3058H58.8412C58.3391 25.3058 57.8371 25.6137 57.6488 26.1678C57.335 27.2146 56.2052 28.9386 52.314 28.9386C52.314 28.9386 47.2303 29.2464 46.4144 24.5054C46.2889 23.7666 46.8537 23.1508 47.6069 23.1508H62.7952C63.4228 23.1508 63.9877 22.6583 63.9877 21.981C64.1132 18.533 63.4856 8.55843 52.063 8.55843ZM47.042 18.5946C46.5399 18.5946 46.2261 18.1636 46.3516 17.671C46.8537 16.1933 48.2973 13.4226 52.1257 13.4226C56.0797 13.4226 57.0211 16.3164 57.2722 17.7941C57.335 18.2251 57.0211 18.5946 56.5818 18.5946H47.042ZM31.3516 15.6391C30.9122 15.516 30.8495 14.9003 31.2888 14.7156C32.7323 13.9767 34.4897 12.3759 34.4897 8.92785C34.4897 2.95543 30.2219 0 24.8243 0H7.87866C7.37657 0 7 0.369429 7 0.862001V32.6328C7 33.1254 7.37657 33.4948 7.87866 33.4948H24.7616C24.7616 33.4948 35.6194 33.8027 35.6194 23.5818C35.6194 23.6434 35.9959 17.1168 31.3516 15.6391ZM14.7825 6.58814C14.7825 6.21871 15.0963 5.97243 15.4101 5.97243H24.6988C24.6988 5.97243 27.0838 5.97243 27.0838 9.482C27.0838 12.9916 25.6402 13.4841 24.0712 13.4841H15.4728C15.0963 13.4841 14.8452 13.1763 14.8452 12.8684V6.58814H14.7825ZM24.2595 27.584H15.4728C15.0963 27.584 14.8452 27.2761 14.8452 26.9683V19.2718C14.8452 18.9024 15.159 18.6561 15.4728 18.6561H24.7616C24.7616 18.6561 28.4018 18.5946 28.339 23.274C28.339 27.153 25.6403 27.5224 24.2595 27.584ZM44.6571 1.35457V4.24843C44.6571 4.61786 44.9709 4.86414 45.2847 4.86414H58.0881C58.4647 4.86414 58.7157 4.55628 58.7157 4.24843V1.35457C58.7157 0.985143 58.4019 0.738857 58.0881 0.738857H45.3475C44.9709 0.677286 44.6571 0.985143 44.6571 1.35457Z" fill="#D9D9D9"/>
<path d="M7.20215 42.3301C7.86621 42.3301 8.37402 42.457 8.72559 42.7109C9.0804 42.9648 9.25781 43.4108 9.25781 44.0488C9.25781 44.3288 9.2334 44.568 9.18457 44.7666C9.13574 44.9619 9.04622 45.1165 8.91602 45.2305C8.78581 45.3444 8.66536 45.4209 8.55469 45.46C8.44401 45.499 8.28939 45.5462 8.09082 45.6016C8.63118 45.6862 9.00391 45.8229 9.20898 46.0117C9.41732 46.1973 9.52148 46.5537 9.52148 47.0811C9.52148 47.82 9.34245 48.3245 8.98438 48.5947C8.62956 48.8649 8.06803 49 7.2998 49H0.869141V42.3301H7.20215ZM7.21191 44.3516C7.21191 44.1237 7.14681 43.974 7.0166 43.9023C6.88639 43.8275 6.69434 43.79 6.44043 43.79H2.90039V44.9521H6.40137C6.66829 44.9521 6.87012 44.9163 7.00684 44.8447C7.14355 44.7699 7.21191 44.6055 7.21191 44.3516ZM7.48047 46.8418C7.48047 46.6595 7.42188 46.5195 7.30469 46.4219C7.1875 46.321 6.95964 46.2705 6.62109 46.2705H2.90039V47.4912H6.5918C6.82292 47.4912 7.02799 47.4668 7.20703 47.418C7.38932 47.3659 7.48047 47.1738 7.48047 46.8418ZM18.5645 42.3301V43.8486H13.1543V44.9912H18.2031V46.3096H13.1543V47.4912H18.5645V49H11.123V42.3301H18.5645ZM28.7305 42.3301V49H26.6895V46.4316H22.0898V49H20.0586V42.3301H22.0898V44.7715H26.6895V42.3301H28.7305ZM32.1973 49H29.9414L33.6572 42.3301H36.4014L40.0391 49H37.7979L37.168 47.7891H32.8613L32.1973 49ZM33.5693 46.4121H36.4307L35 43.7705L33.5693 46.4121ZM47.1631 49L43.1396 43.9902V49H41.2305V42.3301H44.4629L48.4814 47.3301V42.3301H50.3906V49H47.1631ZM60.542 46.749C60.542 47.6702 60.3727 48.2822 60.0342 48.585C59.6989 48.8877 59.0348 49.0391 58.042 49.0391L56.4893 49.0684L55.2295 49.0488C53.8883 49.0488 53.0257 48.8747 52.6416 48.5264C52.2607 48.1748 52.0703 47.6296 52.0703 46.8906L52.0117 45.4893C52.0117 44.3955 52.1712 43.5947 52.4902 43.0869C52.8092 42.5758 53.4619 42.3203 54.4482 42.3203L56.3477 42.2715C56.901 42.2715 57.3584 42.2764 57.7197 42.2861C58.0811 42.2959 58.5173 42.3285 59.0283 42.3838C59.5426 42.4359 59.9089 42.6605 60.127 43.0576C60.3483 43.4515 60.459 43.9919 60.459 44.6787H58.4912C58.4912 44.3727 58.4163 44.1693 58.2666 44.0684C58.1169 43.9642 57.8776 43.9121 57.5488 43.9121L56.9775 43.9023H56.4209L55.3906 43.9121C54.7754 43.9121 54.3994 44.026 54.2627 44.2539C54.126 44.4785 54.0576 44.9473 54.0576 45.6602C54.0576 46.3926 54.1374 46.8695 54.2969 47.0908C54.4596 47.3089 54.8877 47.418 55.5811 47.418L56.3721 47.4424L57.4121 47.4277C57.8158 47.4277 58.1038 47.3724 58.2764 47.2617C58.4521 47.1478 58.54 46.8809 58.54 46.4609H60.5273L60.542 46.749ZM69.5605 42.3301V43.8486H64.1504V44.9912H69.1992V46.3096H64.1504V47.4912H69.5605V49H62.1191V42.3301H69.5605Z" fill="white"/>
</svg>
