<svg width="71" height="52" viewBox="0 0 71 52" fill="none" xmlns="http://www.w3.org/2000/svg">
<path d="M49.9019 18.4901C49.8856 26.6936 43.5545 33.4104 35.5121 34.0747C35.5121 34.0747 25.1842 34.333 21.7614 34.0378C21.1359 33.9633 20.5419 33.7289 20.0397 33.3585C19.5374 32.9881 19.1448 32.4949 18.9019 31.9289C19.3776 32.1542 19.8914 32.2935 20.4183 32.3401C21.5393 32.435 23.4511 32.4825 26.1157 32.4825C30.0313 32.4825 34.2773 32.377 34.3206 32.377H34.3964C38.6551 32.0216 42.6141 30.0984 45.4663 26.9994C47.9078 24.3695 49.4501 21.0664 49.8802 17.5464C49.8964 17.8469 49.9019 18.1685 49.9019 18.4901Z" fill="#D9D9D9"/>
<path d="M49.9019 16.202C49.9019 24.6192 43.4312 31.5055 35.2324 32.1763C35.2324 32.1763 24.7038 32.4467 21.2145 32.1438C19.3428 31.9815 17.9405 30.2234 17.9019 28.2814L17.935 3.96568C17.9902 2.02367 19.3981 0.270987 21.2752 0.119521C24.77 -0.167183 35.2932 0.151978 35.2932 0.151978C43.4864 0.866033 49.9019 7.78479 49.9019 16.202Z" fill="#D9D9D9"/>
<path d="M6.74805 43.3301C7.95573 43.3301 8.76628 43.5303 9.17969 43.9307C9.5931 44.3311 9.7998 45.1302 9.7998 46.3281V46.709V46.9189V47.0996C9.7998 47.4121 9.79492 47.6318 9.78516 47.7588C9.77539 47.8857 9.73633 48.1445 9.66797 48.5352C9.60286 48.9258 9.37337 49.2676 8.97949 49.5605C8.58561 49.8535 8.09245 50 7.5 50H0.869141V43.3301H6.74805ZM7.74902 46.6895V46.6309C7.74902 45.9766 7.67578 45.5371 7.5293 45.3125C7.38281 45.0846 6.98893 44.9707 6.34766 44.9707H2.90039V48.3691H6.31836C6.94661 48.3691 7.34212 48.2536 7.50488 48.0225C7.66764 47.7881 7.74902 47.3438 7.74902 46.6895ZM18.8477 43.3301V44.8486H13.4375V45.9912H18.4863L17.8809 47.3096H13.4375V48.4912H18.8477V50H11.4062V43.3301H18.8477ZM23.2617 50L19.7412 43.3301H21.9629L24.5801 48.3594L27.3145 43.3301H29.5703L25.8545 50H23.2617ZM37.793 43.3301V44.8486H32.7441V45.9912H37.793V47.3096H32.7441V50H30.7129V43.3301H37.793ZM43.3252 43.2617L44.9463 43.2715C46.1312 43.2715 46.9417 43.4684 47.3779 43.8623C47.8141 44.2529 48.0322 45.0391 48.0322 46.2207V46.5381C48.0322 47.9248 47.8581 48.8542 47.5098 49.3262C47.1647 49.7949 46.2891 50.0293 44.8828 50.0293L43.3545 50.0586L42.7148 50.0684L41.333 50.0195C40.5615 50.0195 39.9658 49.8454 39.5459 49.4971C39.126 49.1455 38.916 48.5791 38.916 47.7979L38.8965 46.5723C38.8965 45.2181 39.069 44.3327 39.4141 43.916C39.7624 43.4993 40.5859 43.291 41.8848 43.291L43.3252 43.2617ZM42.2266 48.4082L43.3154 48.4277L44.3555 48.418C44.9284 48.418 45.3385 48.3577 45.5859 48.2373C45.8366 48.1136 45.9619 47.8076 45.9619 47.3193L45.9863 46.4209C45.9863 46.1149 45.9668 45.8529 45.9277 45.6348C45.8919 45.4167 45.8171 45.2572 45.7031 45.1562C45.5892 45.0521 45.4199 44.9837 45.1953 44.9512C44.974 44.9186 44.7363 44.9023 44.4824 44.9023L42.4658 44.9121C42.0036 44.9121 41.652 44.9593 41.4111 45.0537C41.1735 45.1449 41.0352 45.3418 40.9961 45.6445C40.9603 45.9473 40.9424 46.1995 40.9424 46.4014V46.582V46.8506C40.9424 47.4626 41.014 47.876 41.1572 48.0908C41.3005 48.3024 41.6569 48.4082 42.2266 48.4082ZM56.2793 48.3301V50H49.6387V43.3301H51.6699V48.3301H56.2793ZM57.4121 50V43.3301H59.4434V50H57.4121ZM65.4834 43.2617L67.1045 43.2715C68.2894 43.2715 69.0999 43.4684 69.5361 43.8623C69.9723 44.2529 70.1904 45.0391 70.1904 46.2207V46.5381C70.1904 47.9248 70.0163 48.8542 69.668 49.3262C69.3229 49.7949 68.4473 50.0293 67.041 50.0293L65.5127 50.0586L64.873 50.0684L63.4912 50.0195C62.7197 50.0195 62.124 49.8454 61.7041 49.4971C61.2842 49.1455 61.0742 48.5791 61.0742 47.7979L61.0547 46.5723C61.0547 45.2181 61.2272 44.3327 61.5723 43.916C61.9206 43.4993 62.7441 43.291 64.043 43.291L65.4834 43.2617ZM64.3848 48.4082L65.4736 48.4277L66.5137 48.418C67.0866 48.418 67.4967 48.3577 67.7441 48.2373C67.9948 48.1136 68.1201 47.8076 68.1201 47.3193L68.1445 46.4209C68.1445 46.1149 68.125 45.8529 68.0859 45.6348C68.0501 45.4167 67.9753 45.2572 67.8613 45.1562C67.7474 45.0521 67.5781 44.9837 67.3535 44.9512C67.1322 44.9186 66.8945 44.9023 66.6406 44.9023L64.624 44.9121C64.1618 44.9121 63.8102 44.9593 63.5693 45.0537C63.3317 45.1449 63.1934 45.3418 63.1543 45.6445C63.1185 45.9473 63.1006 46.1995 63.1006 46.4014V46.582V46.8506C63.1006 47.4626 63.1722 47.876 63.3154 48.0908C63.4587 48.3024 63.8151 48.4082 64.3848 48.4082Z" fill="white"/>
</svg>
