<svg width="54" height="51" viewBox="0 0 54 51" fill="none" xmlns="http://www.w3.org/2000/svg">
<path fill-rule="evenodd" clip-rule="evenodd" d="M27.5004 0C17.2846 0 9 8.0332 9 17.9436C9 25.8714 14.3007 32.5976 21.6518 34.9699C22.5763 35.1361 22.9159 34.5807 22.9159 34.1066C22.9159 33.6789 22.8985 32.2652 22.8907 30.7663C17.7434 31.8515 16.6576 28.6491 16.6576 28.6491C15.8162 26.5749 14.6034 26.0232 14.6034 26.0232C12.9249 24.9098 14.7295 24.9326 14.7295 24.9326C16.5876 25.0591 17.566 26.782 17.566 26.782C19.2158 29.5251 21.894 28.7317 22.9494 28.2733C23.1159 27.1135 23.5951 26.3214 24.1243 25.8735C20.015 25.4201 15.6953 23.8811 15.6953 17.0056C15.6953 15.0466 16.418 13.446 17.6016 12.1892C17.4094 11.7371 16.7763 9.9117 17.7808 7.44021C17.7808 7.44021 19.3341 6.95856 22.8685 9.28033C24.3448 8.88261 25.9276 8.68312 27.4996 8.67638C29.072 8.68355 30.6557 8.88304 32.1341 9.28033C35.6651 6.95898 37.2166 7.44063 37.2166 7.44063C38.2237 9.91212 37.5906 11.7371 37.3984 12.1896C38.5846 13.4456 39.3021 15.0466 39.3021 17.0061C39.3021 23.8976 34.9741 25.415 30.8544 25.8587C31.518 26.4155 32.1093 27.5078 32.1093 29.1822C32.1093 31.5828 32.0885 33.5149 32.0885 34.1058C32.0885 34.5823 32.4216 35.1424 33.3591 34.9661C40.7062 32.5908 46 25.8672 46 17.9419C46.0009 8.03362 37.718 0 27.5004 0Z" fill="#D9D9D9"/>
<path d="M15.5509 25.3407C15.505 25.4409 15.3441 25.4707 15.1983 25.4021C15.0485 25.336 14.9654 25.2003 15.0138 25.0997C15.0572 24.9976 15.2186 24.9688 15.3678 25.0373C15.5175 25.1035 15.6021 25.2405 15.5509 25.3407ZM16.3831 26.25C16.2851 26.3383 16.0933 26.2972 15.9629 26.1564C15.8286 26.016 15.8035 25.8284 15.903 25.7386C16.0035 25.6498 16.1894 25.6914 16.3232 25.8317C16.4585 25.9735 16.485 26.1592 16.3826 26.2495L16.3831 26.25ZM17.1931 27.4069C17.0675 27.4929 16.8613 27.4125 16.7343 27.2334C16.6077 27.0553 16.6077 26.8412 16.7367 26.7547C16.8642 26.6687 17.0671 26.7462 17.1955 26.9234C17.3221 27.1053 17.3221 27.3199 17.1931 27.4069ZM18.3031 28.526C18.1906 28.6474 17.9505 28.6148 17.7752 28.4489C17.5955 28.2868 17.5457 28.0567 17.6583 27.9352C17.7728 27.8138 18.0138 27.8478 18.1906 28.0122C18.3693 28.1739 18.4234 28.405 18.3031 28.526ZM19.8352 29.1753C19.785 29.3331 19.5541 29.4045 19.3213 29.3379C19.0885 29.2689 18.9368 29.0846 18.9832 28.9258C19.0315 28.767 19.2643 28.6928 19.4986 28.7641C19.7304 28.8322 19.8831 29.0146 19.8352 29.1753ZM21.5161 29.2958C21.5224 29.4612 21.3249 29.5992 21.0805 29.602C20.8351 29.6077 20.6361 29.4735 20.6332 29.31C20.6332 29.1427 20.8264 29.0066 21.0718 29.0028C21.3162 28.9981 21.5161 29.1313 21.5161 29.2958ZM23.0811 29.0354C23.1101 29.197 22.9411 29.3634 22.6981 29.4073C22.4595 29.4508 22.2392 29.3506 22.2083 29.1899C22.1793 29.0245 22.3518 28.8591 22.5899 28.8156C22.8329 28.7741 23.0502 28.8709 23.0811 29.0354Z" fill="#D9D9D9"/>
<path d="M9.43848 45.2402L9.44824 46.6416C9.44824 47.4619 9.30664 48.0706 9.02344 48.4678C8.74023 48.8617 8.18848 49.0586 7.36816 49.0586L6.30859 49.0684L5.09766 49.0586L4.04785 49.0488C3.28288 49.0488 2.67415 48.9984 2.22168 48.8975C1.77246 48.7933 1.41602 48.5654 1.15234 48.2139C0.891927 47.859 0.761719 47.3171 0.761719 46.5879L0.742188 45.748C0.742188 44.4492 0.901693 43.5508 1.2207 43.0527C1.53971 42.5514 2.29329 42.3008 3.48145 42.3008L5 42.2715L5.56152 42.2617L6.91895 42.291C7.80111 42.291 8.43913 42.4424 8.83301 42.7451C9.23014 43.0479 9.42871 43.6322 9.42871 44.498V44.6201H7.44141C7.44141 44.4606 7.41699 44.3239 7.36816 44.21C7.32259 44.096 7.23633 44.0163 7.10938 43.9707C6.98242 43.9251 6.86035 43.8975 6.74316 43.8877C6.62923 43.8747 6.46159 43.8682 6.24023 43.8682L3.8916 43.8584C3.40983 43.8584 3.10547 43.9756 2.97852 44.21C2.85156 44.4443 2.78809 44.8382 2.78809 45.3916V46.0117C2.78809 46.4707 2.85156 46.8125 2.97852 47.0371C3.10547 47.2585 3.28613 47.3854 3.52051 47.418C3.75488 47.4473 3.93392 47.4652 4.05762 47.4717C4.18457 47.4782 4.3457 47.4814 4.54102 47.4814L6.34766 47.4912C6.68945 47.4912 6.95801 47.4342 7.15332 47.3203C7.35189 47.2064 7.45117 46.9932 7.45117 46.6807L7.44141 46.4902H4.86816V45.2402H9.43848ZM11.0449 49V42.3301H13.0762V49H11.0449ZM17.1875 49V44H14.2041V42.3301H22.1875V44H19.2139V49H17.1875ZM31.9922 42.3301V49H29.9512V46.4316H25.3516V49H23.3203V42.3301H25.3516V44.7715H29.9512V42.3301H31.9922ZM42.29 46.1387V46.5293C42.29 47.571 42.0182 48.2562 41.4746 48.585C40.931 48.9137 40.0928 49.0781 38.96 49.0781L37.2998 49.0684C36.4209 49.0684 35.7471 49.0228 35.2783 48.9316C34.8128 48.8372 34.4368 48.6012 34.1504 48.2236C33.8639 47.8428 33.7207 47.2454 33.7207 46.4316V42.3398H35.752V45.8311C35.752 46.4984 35.8317 46.9313 35.9912 47.1299C36.1507 47.3285 36.5544 47.4277 37.2021 47.4277L38.1104 47.4424L38.9502 47.4277C39.5036 47.4277 39.8584 47.3415 40.0146 47.1689C40.1709 46.9964 40.249 46.6465 40.249 46.1191V45.8701V42.3398H42.29V46.1387ZM50.3662 42.3301C51.0303 42.3301 51.5381 42.457 51.8896 42.7109C52.2445 42.9648 52.4219 43.4108 52.4219 44.0488C52.4219 44.3288 52.3975 44.568 52.3486 44.7666C52.2998 44.9619 52.2103 45.1165 52.0801 45.2305C51.9499 45.3444 51.8294 45.4209 51.7188 45.46C51.6081 45.499 51.4535 45.5462 51.2549 45.6016C51.7952 45.6862 52.168 45.8229 52.373 46.0117C52.5814 46.1973 52.6855 46.5537 52.6855 47.0811C52.6855 47.82 52.5065 48.3245 52.1484 48.5947C51.7936 48.8649 51.2321 49 50.4639 49H44.0332V42.3301H50.3662ZM50.376 44.3516C50.376 44.1237 50.3109 43.974 50.1807 43.9023C50.0505 43.8275 49.8584 43.79 49.6045 43.79H46.0645V44.9521H49.5654C49.8324 44.9521 50.0342 44.9163 50.1709 44.8447C50.3076 44.7699 50.376 44.6055 50.376 44.3516ZM50.6445 46.8418C50.6445 46.6595 50.5859 46.5195 50.4688 46.4219C50.3516 46.321 50.1237 46.2705 49.7852 46.2705H46.0645V47.4912H49.7559C49.987 47.4912 50.1921 47.4668 50.3711 47.418C50.5534 47.3659 50.6445 47.1738 50.6445 46.8418Z" fill="white"/>
</svg>
