<svg width="67" height="51" viewBox="0 0 67 51" fill="none" xmlns="http://www.w3.org/2000/svg">
<path fill-rule="evenodd" clip-rule="evenodd" d="M47.0518 0H19.0422C17.0883 0 15.5051 1.55457 15.5051 3.47216V31.2604C15.5051 33.1782 17.0883 34.7325 19.0422 34.7325H47.0515C49.0055 34.7325 50.5887 33.178 50.5887 31.2604V3.47243C50.5889 1.55484 49.0058 0 47.0518 0ZM26.7627 27.482H22.0425V12.6249H26.7627V27.482ZM24.3716 10.8016C22.8812 10.8016 21.9185 9.76827 21.9185 8.49279C21.9185 7.18625 22.9119 6.18377 24.4337 6.18377C25.955 6.18377 26.8871 7.18625 26.9177 8.49279C26.9177 9.76853 25.955 10.8016 24.3716 10.8016ZM43.9965 27.482H39.2765V19.2481C39.2765 17.3343 38.5928 16.0277 36.8848 16.0277C35.5806 16.0277 34.8046 16.9088 34.4629 17.7594C34.3389 18.0635 34.3074 18.4886 34.3074 18.9143V27.4823H29.5874V17.3645C29.5874 15.5112 29.5252 13.962 29.4634 12.6249H33.5623L33.78 14.6909H33.8731C34.4941 13.7184 36.0159 12.2905 38.5621 12.2905C41.6674 12.2905 43.9962 14.3263 43.9962 18.7014V27.482H43.9965Z" fill="#D9D9D9"/>
<path d="M7.50977 46.9976V48.6675H0.869141V41.9976H2.90039V46.9976H7.50977ZM8.64258 48.6675V41.9976H10.6738V48.6675H8.64258ZM18.335 48.6675L14.3115 43.6577V48.6675H12.4023V41.9976H15.6348L19.6533 46.9976V41.9976H21.5625V48.6675H18.335ZM26.3721 44.5073L29.1211 41.9976H31.9238L28.1006 45.2983L32.3438 48.6675H29.3604L26.3721 46.1284H25.332V48.6675H23.3008V41.9976H25.332V44.5073H26.3721ZM40.918 41.9976V43.5161H35.5078V44.6587H40.5566L39.9512 45.9771H35.5078V47.1587H40.918V48.6675H33.4766V41.9976H40.918ZM48.3008 41.9976C49.5085 41.9976 50.319 42.1978 50.7324 42.5981C51.1458 42.9985 51.3525 43.7977 51.3525 44.9956V45.3765V45.5864V45.7671C51.3525 46.0796 51.3477 46.2993 51.3379 46.4263C51.3281 46.5532 51.2891 46.812 51.2207 47.2026C51.1556 47.5933 50.9261 47.9351 50.5322 48.228C50.1383 48.521 49.6452 48.6675 49.0527 48.6675H42.4219V41.9976H48.3008ZM49.3018 45.3569V45.2983C49.3018 44.644 49.2285 44.2046 49.082 43.98C48.9355 43.7521 48.5417 43.6382 47.9004 43.6382H44.4531V47.0366H47.8711C48.4993 47.0366 48.8949 46.9211 49.0576 46.6899C49.2204 46.4556 49.3018 46.0112 49.3018 45.3569ZM52.959 48.6675V41.9976H54.9902V48.6675H52.959ZM62.6514 48.6675L58.6279 43.6577V48.6675H56.7188V41.9976H59.9512L63.9697 46.9976V41.9976H65.8789V48.6675H62.6514Z" fill="white"/>
</svg>
